<svg xmlns="http://www.w3.org/2000/svg" width="157.223" height="56.863" viewBox="0 0 157.223 56.863">
  <g id="wahyudsignblk" transform="translate(-63.991 -11.052)">
    <g id="Group_2" data-name="Group 2" transform="translate(64 11.547)">
      <g id="Group_1" data-name="Group 1">
        <path id="Path_1" data-name="Path 1" d="M4,152.375l2,26a3.41,3.41,0,0,0,1,0l2-26c0-.02-.01,0,0,0h5c.02,0,0-.02,0,0l2,26c.01.049,0,.039,0,0l3-26c0-.02-.02,0,0,0h4c.02,0,0-.02,0,0l-4,36c0,.02.02,0,0,0H14c-.02,0,0,.02,0,0l-3-24c-.01-.039,0-.039,0,0l-2,24c0,.02.01,0,0,0H4c-.02,0,0,.02,0,0l-4-36c0-.02-.02,0,0,0H4C4.02,152.375,4,152.355,4,152.375Z" transform="translate(0 -138.375)"/>
        <path id="Path_2" data-name="Path 2" d="M256.326,182.465h-4c-.8,0-.853.037-1,1l-1,3c-.147.963-.2,2-1,2h-1a1.832,1.832,0,0,1-2-2l5-33c.157-.953,1.214-1,2-1h2c.786,0,.853.047,1,1l6,33a1.842,1.842,0,0,1-2,2h-1c-.8,0-.853-1.037-1-2l-1-3C257.188,182.492,257.112,182.465,256.326,182.465Zm-4-10h0c-.187,1.248.968,3,2,3h0c1.032,0,2.187-1.752,2-3h0A2.033,2.033,0,0,0,252.326,172.465Z" transform="translate(-222.326 -138.465)"/>
        <path id="Path_3" data-name="Path 3" d="M439.407,152.465v36h-4v-15h-6v15h-4v-36h4v14h6v-14Z" transform="translate(-383.407 -138.465)"/>
        <path id="Path_4" data-name="Path 4" d="M587.426,152.465l3,15,3-15h4l-5,24v12h-4v-12l-6-24Z" transform="translate(-525.426 -138.465)"/>
        <path id="Path_5" data-name="Path 5" d="M755.274,152.465v21c0,4.276,1.142,7,3,7s2-2.724,2-7v-21h4v21c0,9.986-3.294,15-7,15-3.735,0-6-5.014-6-15v-21Z" transform="translate(-677.274 -138.465)"/>
        <path id="Path_6" data-name="Path 6" d="M929.966,170.465c0,10.714-2.869,18-8,18h-3a3.023,3.023,0,0,1-3-3v-30a3.023,3.023,0,0,1,3-3h3C927.1,152.465,929.966,159.7,929.966,170.465Zm-3,0c0-6.644-2.041-11-5-11h-2v21h2C924.924,180.465,926.966,177.11,926.966,170.465Z" transform="translate(-825.966 -138.465)"/>
        <path id="Path_7" data-name="Path 7" d="M1469.889,188.465h-3c-.374,0-.872-.568-1-1l-4-16c-.334-1.14-2-.219-2,1v15a1.014,1.014,0,0,1-1,1h-2a1.014,1.014,0,0,1-1-1v-34a1.014,1.014,0,0,1,1-1h2c.374,0,.872.568,1,1l5,15c.334,1.14,2,1.219,2,0v-15c0-.6-.482-1,0-1h3c.482,0,0,.391,0,1v34C1469.879,188.065,1470.37,188.465,1469.889,188.465Z" transform="translate(-1312.889 -138.465)"/>
        <path id="Path_8" data-name="Path 8" d="M1070.255,162.867c-2.045-1.681-4-1.776-4-5,0-2.271.056-4.059,1-4,1.052.049,1.931,1.68,2,4h1v-9a8.487,8.487,0,0,1,0-1,6.264,6.264,0,0,0-3-1c-3.361,0-6,4.159-6,11-.049,12.827,8,9.306,8,16,0,2.113.15,3-1,3-1.1,0-1.882-1.218-2-4h-5c.118,7.313,3.55,11,7,11,.757,0,1.381.374,2,0v-21Z" transform="translate(-957.255 -133.867)"/>
        <path id="Path_9" data-name="Path 9" d="M1318.173,164.768h-6c-.7,0-2,.125-2,1v4c0,.865,1.3,1,2,1h2c.855,0,1.255.988,1,2-.708,2.791-2.408,4-4,4-2.821,0-4-3.306-4-10,0-6.281,1.484-10,4-10a2.668,2.668,0,0,1,3,2c.2.58.5,1,1,1h2c.806,0,1.157-1.027,1-2-1.081-6.281-3.5-10-7-10a6.2,6.2,0,0,0-5,3v31a6.188,6.188,0,0,0,5,3c4.207,0,7.155-5.818,8-12,.01-.088,0,.088,0,0v-7C1319.163,164.9,1318.871,164.768,1318.173,164.768Z" transform="translate(-1178.173 -134.768)"/>
        <path id="Path_10" data-name="Path 10" d="M1215.683,518.048h-3c-.089,0,0,.089,0,0v-1c0-.089-.088,0,0,0h3c.079,0,0-.079,0,0v1C1215.673,518.137,1215.762,518.048,1215.683,518.048Z" transform="translate(-1093.683 -467.048)"/>
        <path id="Path_11" data-name="Path 11" d="M1211.043,152.244v35c0,.452-.627,0-1,0h-2c-.364,0-1,.452-1,0v-35a1.251,1.251,0,0,1,1-1h2A1.263,1.263,0,0,1,1211.043,152.244Z" transform="translate(-1088.543 -137.744)" fill="none" stroke="#000" stroke-miterlimit="10" stroke-width="2"/>
        <path id="Path_12" data-name="Path 12" d="M1189.434,69.3l3-8c.255-.619.745-.619,1,0l3,8c.265.639.521,1,0,1h-6C1189.932,70.3,1189.168,69.926,1189.434,69.3Z" transform="translate(-1072.434 -56.297)"/>
        <path id="Path_13" data-name="Path 13" d="M1220,175.065h-1c-.128,0,0,.118,0,0v-5c0-.128-.118,0,0,0h1c.128,0,1-.118,1,0v5C1221.013,175.183,1220.131,175.065,1220,175.065Z" transform="translate(-1099.003 -154.065)"/>
        <path id="Path_14" data-name="Path 14" d="M1220,237.963h-1c-.128,0,0,.128,0,0v-5c0-.128-.118,0,0,0h1c.128,0,1-.118,1,0v5C1221.013,238.081,1220.131,237.963,1220,237.963Z" transform="translate(-1099.003 -210.963)"/>
        <path id="Path_15" data-name="Path 15" d="M1226.988,519.72s12.9,11,24-2" transform="translate(-1106.488 -468.22)" fill="none" stroke="#000" stroke-miterlimit="10" stroke-width="1"/>
        <path id="Path_16" data-name="Path 16" d="M961.854,25.047s8.838-23.805,26-8" transform="translate(-867.354 -11.547)" fill="none" stroke="lime" stroke-miterlimit="10" stroke-width="1"/>
      </g>
    </g>
  </g>
</svg>
